<svg xmlns="http://www.w3.org/2000/svg" xmlns:xlink="http://www.w3.org/1999/xlink" width="54" height="55" viewBox="0 0 54 55">
  <defs>
    <clipPath id="clip-path">
      <rect id="Rectangle_1015" data-name="Rectangle 1015" width="54" height="55" fill="none" stroke="#819db4" stroke-width="1"></rect>
    </clipPath>
  </defs>
  <g id="Logo_48h" data-name="Logo 48h" transform="translate(0 0)">
    <g id="Groupe_8844" data-name="Groupe 8844" transform="translate(0 0)" clip-path="url(#clip-path)">
      <path id="Tracé_8216" data-name="Tracé 8216" d="M38.6,42.872a17.412,17.412,0,1,1-3.392-29.567" transform="translate(-0.886 -1.028)" fill="none" stroke="#819db4" stroke-linecap="round" stroke-linejoin="round" stroke-width="2.5"></path>
      <path id="Tracé_8217" data-name="Tracé 8217" d="M52.963,28.2A25.856,25.856,0,1,1,27.1,2.429,25.5,25.5,0,0,1,38.991,5.321L41.047,1.64a.832.832,0,0,1,.873-.379,1.254,1.254,0,0,1,1.053.761l2.6,10.718a1.346,1.346,0,0,1-.934,1.656L34.121,17.721" transform="translate(-0.106 -0.11)" fill="none" stroke="#819db4" stroke-linecap="round" stroke-width="2.5"></path>
      <path id="Tracé_11392" data-name="Tracé 11392" d="M6.012-3.294V-.738A.762.762,0,0,0,6.8.108.762.762,0,0,0,7.6-.738V-3.294h.81a.684.684,0,0,0,.684-.684.684.684,0,0,0-.684-.684H7.6V-11.61c0-.936-.5-1.314-1.206-1.314a1.284,1.284,0,0,0-1.242.72L.612-4.77a2.082,2.082,0,0,0-.4.918c0,.324.144.558.684.558ZM2.2-4.662l3.78-6.57h.036v6.57Zm9-5.328A3,3,0,0,0,12.87-7.146a3.121,3.121,0,0,0-2.322,3.2A3.869,3.869,0,0,0,14.472.108,3.869,3.869,0,0,0,18.4-3.942a3.121,3.121,0,0,0-2.322-3.2A3,3,0,0,0,17.748-9.99a3.012,3.012,0,0,0-3.276-2.934A3.012,3.012,0,0,0,11.2-9.99Zm1.476.306a1.729,1.729,0,0,1,1.8-1.872,1.729,1.729,0,0,1,1.8,1.872,1.735,1.735,0,0,1-1.8,1.89A1.735,1.735,0,0,1,12.672-9.684ZM12.24-3.87a2.313,2.313,0,0,1,2.232-2.556A2.313,2.313,0,0,1,16.7-3.87a2.342,2.342,0,0,1-2.232,2.61A2.342,2.342,0,0,1,12.24-3.87Zm17.044,3.3A.593.593,0,0,0,29.9.084a.593.593,0,0,0,.616-.658V-4.7a2.556,2.556,0,0,0-2.59-2.828,2.549,2.549,0,0,0-2.058.98L25.84-6.58v-3.57a.593.593,0,0,0-.616-.658.593.593,0,0,0-.616.658V-.574a.593.593,0,0,0,.616.658.593.593,0,0,0,.616-.658v-4.06a1.687,1.687,0,0,1,1.722-1.834,1.687,1.687,0,0,1,1.722,1.834Z" transform="translate(15 34)" fill="#819db4" stroke="#819db4" stroke-width="0.5"></path>
    </g>
  </g>
</svg>